<mxfile host="Electron" modified="2024-03-23T17:52:55.290Z" agent="Mozilla/5.0 (Windows NT 10.0; Win64; x64) AppleWebKit/537.36 (KHTML, like Gecko) draw.io/23.1.5 Chrome/120.0.6099.109 Electron/28.1.0 Safari/537.36" etag="b60yC54U_8AyRpl2NqAw" version="23.1.5" type="device">
  <diagram name="Pagina-1" id="X6UKxBc-TmLxgEe2H36K">
    <mxGraphModel dx="1290" dy="629" grid="1" gridSize="10" guides="1" tooltips="1" connect="1" arrows="1" fold="1" page="1" pageScale="1" pageWidth="827" pageHeight="1169" math="0" shadow="0">
      <root>
        <mxCell id="0" />
        <mxCell id="1" parent="0" />
        <mxCell id="iDuFtPf6Ct4Iex1Se9p7-16" style="edgeStyle=orthogonalEdgeStyle;rounded=0;orthogonalLoop=1;jettySize=auto;html=1;exitX=0.5;exitY=1;exitDx=0;exitDy=0;entryX=0;entryY=0.5;entryDx=0;entryDy=0;" parent="1" source="iDuFtPf6Ct4Iex1Se9p7-1" target="iDuFtPf6Ct4Iex1Se9p7-6" edge="1">
          <mxGeometry relative="1" as="geometry" />
        </mxCell>
        <mxCell id="iDuFtPf6Ct4Iex1Se9p7-17" style="edgeStyle=orthogonalEdgeStyle;rounded=0;orthogonalLoop=1;jettySize=auto;html=1;exitX=0.5;exitY=1;exitDx=0;exitDy=0;entryX=0;entryY=0.5;entryDx=0;entryDy=0;" parent="1" source="iDuFtPf6Ct4Iex1Se9p7-1" target="iDuFtPf6Ct4Iex1Se9p7-8" edge="1">
          <mxGeometry relative="1" as="geometry" />
        </mxCell>
        <mxCell id="iDuFtPf6Ct4Iex1Se9p7-18" style="edgeStyle=orthogonalEdgeStyle;rounded=0;orthogonalLoop=1;jettySize=auto;html=1;exitX=0.5;exitY=1;exitDx=0;exitDy=0;entryX=0;entryY=0.5;entryDx=0;entryDy=0;" parent="1" source="iDuFtPf6Ct4Iex1Se9p7-1" target="iDuFtPf6Ct4Iex1Se9p7-10" edge="1">
          <mxGeometry relative="1" as="geometry" />
        </mxCell>
        <mxCell id="iDuFtPf6Ct4Iex1Se9p7-19" style="edgeStyle=orthogonalEdgeStyle;rounded=0;orthogonalLoop=1;jettySize=auto;html=1;exitX=0.5;exitY=1;exitDx=0;exitDy=0;entryX=0;entryY=0.5;entryDx=0;entryDy=0;" parent="1" source="iDuFtPf6Ct4Iex1Se9p7-1" target="iDuFtPf6Ct4Iex1Se9p7-12" edge="1">
          <mxGeometry relative="1" as="geometry" />
        </mxCell>
        <mxCell id="iDuFtPf6Ct4Iex1Se9p7-20" style="edgeStyle=orthogonalEdgeStyle;rounded=0;orthogonalLoop=1;jettySize=auto;html=1;exitX=0.5;exitY=1;exitDx=0;exitDy=0;entryX=0;entryY=0.5;entryDx=0;entryDy=0;" parent="1" source="iDuFtPf6Ct4Iex1Se9p7-1" target="iDuFtPf6Ct4Iex1Se9p7-14" edge="1">
          <mxGeometry relative="1" as="geometry" />
        </mxCell>
        <mxCell id="iDuFtPf6Ct4Iex1Se9p7-53" style="edgeStyle=orthogonalEdgeStyle;rounded=0;orthogonalLoop=1;jettySize=auto;html=1;exitX=1;exitY=0.5;exitDx=0;exitDy=0;entryX=0;entryY=0.5;entryDx=0;entryDy=0;endArrow=doubleBlock;endFill=1;" parent="1" source="iDuFtPf6Ct4Iex1Se9p7-1" target="iDuFtPf6Ct4Iex1Se9p7-5" edge="1">
          <mxGeometry relative="1" as="geometry" />
        </mxCell>
        <mxCell id="iDuFtPf6Ct4Iex1Se9p7-55" style="edgeStyle=orthogonalEdgeStyle;rounded=0;orthogonalLoop=1;jettySize=auto;html=1;exitX=0;exitY=0.5;exitDx=0;exitDy=0;entryX=1;entryY=0.5;entryDx=0;entryDy=0;endArrow=doubleBlock;endFill=1;" parent="1" source="iDuFtPf6Ct4Iex1Se9p7-1" target="iDuFtPf6Ct4Iex1Se9p7-4" edge="1">
          <mxGeometry relative="1" as="geometry" />
        </mxCell>
        <mxCell id="iDuFtPf6Ct4Iex1Se9p7-1" value="Eventi" style="rounded=0;whiteSpace=wrap;html=1;" parent="1" vertex="1">
          <mxGeometry x="800" y="130" width="120" height="60" as="geometry" />
        </mxCell>
        <mxCell id="iDuFtPf6Ct4Iex1Se9p7-43" style="edgeStyle=orthogonalEdgeStyle;rounded=0;orthogonalLoop=1;jettySize=auto;html=1;exitX=0.5;exitY=1;exitDx=0;exitDy=0;entryX=0;entryY=0.5;entryDx=0;entryDy=0;" parent="1" source="iDuFtPf6Ct4Iex1Se9p7-2" target="iDuFtPf6Ct4Iex1Se9p7-21" edge="1">
          <mxGeometry relative="1" as="geometry" />
        </mxCell>
        <mxCell id="iDuFtPf6Ct4Iex1Se9p7-44" style="edgeStyle=orthogonalEdgeStyle;rounded=0;orthogonalLoop=1;jettySize=auto;html=1;exitX=0.5;exitY=1;exitDx=0;exitDy=0;entryX=0;entryY=0.5;entryDx=0;entryDy=0;" parent="1" source="iDuFtPf6Ct4Iex1Se9p7-2" target="iDuFtPf6Ct4Iex1Se9p7-23" edge="1">
          <mxGeometry relative="1" as="geometry" />
        </mxCell>
        <mxCell id="iDuFtPf6Ct4Iex1Se9p7-56" style="edgeStyle=orthogonalEdgeStyle;rounded=0;orthogonalLoop=1;jettySize=auto;html=1;exitX=1;exitY=0.5;exitDx=0;exitDy=0;entryX=0;entryY=0.5;entryDx=0;entryDy=0;" parent="1" source="iDuFtPf6Ct4Iex1Se9p7-2" target="iDuFtPf6Ct4Iex1Se9p7-4" edge="1">
          <mxGeometry relative="1" as="geometry" />
        </mxCell>
        <mxCell id="iDuFtPf6Ct4Iex1Se9p7-63" style="edgeStyle=orthogonalEdgeStyle;rounded=0;orthogonalLoop=1;jettySize=auto;html=1;exitX=0.5;exitY=1;exitDx=0;exitDy=0;entryX=0;entryY=0.5;entryDx=0;entryDy=0;" parent="1" source="iDuFtPf6Ct4Iex1Se9p7-2" target="iDuFtPf6Ct4Iex1Se9p7-61" edge="1">
          <mxGeometry relative="1" as="geometry" />
        </mxCell>
        <mxCell id="iDuFtPf6Ct4Iex1Se9p7-2" value="Partecipanti" style="rounded=0;whiteSpace=wrap;html=1;" parent="1" vertex="1">
          <mxGeometry x="350" y="130" width="120" height="60" as="geometry" />
        </mxCell>
        <mxCell id="iDuFtPf6Ct4Iex1Se9p7-41" style="edgeStyle=orthogonalEdgeStyle;rounded=0;orthogonalLoop=1;jettySize=auto;html=1;exitX=0.5;exitY=1;exitDx=0;exitDy=0;entryX=0;entryY=0.5;entryDx=0;entryDy=0;" parent="1" source="iDuFtPf6Ct4Iex1Se9p7-3" target="iDuFtPf6Ct4Iex1Se9p7-31" edge="1">
          <mxGeometry relative="1" as="geometry" />
        </mxCell>
        <mxCell id="iDuFtPf6Ct4Iex1Se9p7-42" style="edgeStyle=orthogonalEdgeStyle;rounded=0;orthogonalLoop=1;jettySize=auto;html=1;exitX=0.5;exitY=1;exitDx=0;exitDy=0;entryX=0;entryY=0.5;entryDx=0;entryDy=0;" parent="1" source="iDuFtPf6Ct4Iex1Se9p7-3" target="iDuFtPf6Ct4Iex1Se9p7-33" edge="1">
          <mxGeometry relative="1" as="geometry" />
        </mxCell>
        <mxCell id="iDuFtPf6Ct4Iex1Se9p7-49" style="edgeStyle=orthogonalEdgeStyle;rounded=0;orthogonalLoop=1;jettySize=auto;html=1;exitX=0.5;exitY=1;exitDx=0;exitDy=0;entryX=0;entryY=0.5;entryDx=0;entryDy=0;" parent="1" source="iDuFtPf6Ct4Iex1Se9p7-3" target="iDuFtPf6Ct4Iex1Se9p7-35" edge="1">
          <mxGeometry relative="1" as="geometry" />
        </mxCell>
        <mxCell id="iDuFtPf6Ct4Iex1Se9p7-50" style="edgeStyle=orthogonalEdgeStyle;rounded=0;orthogonalLoop=1;jettySize=auto;html=1;exitX=0.5;exitY=1;exitDx=0;exitDy=0;entryX=0;entryY=0.5;entryDx=0;entryDy=0;" parent="1" source="iDuFtPf6Ct4Iex1Se9p7-3" target="iDuFtPf6Ct4Iex1Se9p7-37" edge="1">
          <mxGeometry relative="1" as="geometry" />
        </mxCell>
        <mxCell id="iDuFtPf6Ct4Iex1Se9p7-54" style="edgeStyle=orthogonalEdgeStyle;rounded=0;orthogonalLoop=1;jettySize=auto;html=1;exitX=0;exitY=0.5;exitDx=0;exitDy=0;entryX=1;entryY=0.5;entryDx=0;entryDy=0;" parent="1" source="iDuFtPf6Ct4Iex1Se9p7-3" target="iDuFtPf6Ct4Iex1Se9p7-5" edge="1">
          <mxGeometry relative="1" as="geometry" />
        </mxCell>
        <mxCell id="iDuFtPf6Ct4Iex1Se9p7-3" value="Risorse" style="rounded=0;whiteSpace=wrap;html=1;" parent="1" vertex="1">
          <mxGeometry x="1241" y="130" width="120" height="60" as="geometry" />
        </mxCell>
        <mxCell id="iDuFtPf6Ct4Iex1Se9p7-4" value="Ospita" style="rhombus;whiteSpace=wrap;html=1;" parent="1" vertex="1">
          <mxGeometry x="600" y="120" width="80" height="80" as="geometry" />
        </mxCell>
        <mxCell id="iDuFtPf6Ct4Iex1Se9p7-5" value="Possiede" style="rhombus;whiteSpace=wrap;html=1;" parent="1" vertex="1">
          <mxGeometry x="1040" y="120" width="80" height="80" as="geometry" />
        </mxCell>
        <mxCell id="iDuFtPf6Ct4Iex1Se9p7-6" value="" style="ellipse;whiteSpace=wrap;html=1;aspect=fixed;" parent="1" vertex="1">
          <mxGeometry x="930" y="220" width="30" height="30" as="geometry" />
        </mxCell>
        <mxCell id="iDuFtPf6Ct4Iex1Se9p7-7" value="Nome" style="text;html=1;align=left;verticalAlign=middle;whiteSpace=wrap;rounded=0;" parent="1" vertex="1">
          <mxGeometry x="960" y="220" width="60" height="30" as="geometry" />
        </mxCell>
        <mxCell id="iDuFtPf6Ct4Iex1Se9p7-8" value="" style="ellipse;whiteSpace=wrap;html=1;aspect=fixed;" parent="1" vertex="1">
          <mxGeometry x="930" y="260" width="30" height="30" as="geometry" />
        </mxCell>
        <mxCell id="iDuFtPf6Ct4Iex1Se9p7-9" value="Descrizione" style="text;html=1;align=left;verticalAlign=middle;whiteSpace=wrap;rounded=0;" parent="1" vertex="1">
          <mxGeometry x="960" y="260" width="60" height="30" as="geometry" />
        </mxCell>
        <mxCell id="iDuFtPf6Ct4Iex1Se9p7-10" value="" style="ellipse;whiteSpace=wrap;html=1;aspect=fixed;" parent="1" vertex="1">
          <mxGeometry x="930" y="340" width="30" height="30" as="geometry" />
        </mxCell>
        <mxCell id="iDuFtPf6Ct4Iex1Se9p7-11" value="Data" style="text;html=1;align=left;verticalAlign=middle;whiteSpace=wrap;rounded=0;" parent="1" vertex="1">
          <mxGeometry x="960" y="340" width="60" height="30" as="geometry" />
        </mxCell>
        <mxCell id="iDuFtPf6Ct4Iex1Se9p7-12" value="" style="ellipse;whiteSpace=wrap;html=1;aspect=fixed;" parent="1" vertex="1">
          <mxGeometry x="930" y="380" width="30" height="30" as="geometry" />
        </mxCell>
        <mxCell id="iDuFtPf6Ct4Iex1Se9p7-13" value="Luogo" style="text;html=1;align=left;verticalAlign=middle;whiteSpace=wrap;rounded=0;" parent="1" vertex="1">
          <mxGeometry x="960" y="380" width="60" height="30" as="geometry" />
        </mxCell>
        <mxCell id="iDuFtPf6Ct4Iex1Se9p7-14" value="" style="ellipse;whiteSpace=wrap;html=1;aspect=fixed;" parent="1" vertex="1">
          <mxGeometry x="930" y="300" width="30" height="30" as="geometry" />
        </mxCell>
        <mxCell id="iDuFtPf6Ct4Iex1Se9p7-15" value="CapacitÃ " style="text;html=1;align=left;verticalAlign=middle;whiteSpace=wrap;rounded=0;" parent="1" vertex="1">
          <mxGeometry x="960" y="300" width="60" height="30" as="geometry" />
        </mxCell>
        <mxCell id="iDuFtPf6Ct4Iex1Se9p7-21" value="" style="ellipse;whiteSpace=wrap;html=1;aspect=fixed;" parent="1" vertex="1">
          <mxGeometry x="450" y="260" width="30" height="30" as="geometry" />
        </mxCell>
        <mxCell id="iDuFtPf6Ct4Iex1Se9p7-22" value="Nome" style="text;html=1;align=left;verticalAlign=middle;whiteSpace=wrap;rounded=0;" parent="1" vertex="1">
          <mxGeometry x="480" y="260" width="60" height="30" as="geometry" />
        </mxCell>
        <mxCell id="iDuFtPf6Ct4Iex1Se9p7-23" value="" style="ellipse;whiteSpace=wrap;html=1;aspect=fixed;" parent="1" vertex="1">
          <mxGeometry x="450" y="300" width="30" height="30" as="geometry" />
        </mxCell>
        <mxCell id="iDuFtPf6Ct4Iex1Se9p7-24" value="Contatto" style="text;html=1;align=left;verticalAlign=middle;whiteSpace=wrap;rounded=0;" parent="1" vertex="1">
          <mxGeometry x="480" y="300" width="60" height="30" as="geometry" />
        </mxCell>
        <mxCell id="iDuFtPf6Ct4Iex1Se9p7-31" value="" style="ellipse;whiteSpace=wrap;html=1;aspect=fixed;" parent="1" vertex="1">
          <mxGeometry x="1350" y="220" width="30" height="30" as="geometry" />
        </mxCell>
        <mxCell id="iDuFtPf6Ct4Iex1Se9p7-32" value="Tipo" style="text;html=1;align=left;verticalAlign=middle;whiteSpace=wrap;rounded=0;" parent="1" vertex="1">
          <mxGeometry x="1380" y="220" width="60" height="30" as="geometry" />
        </mxCell>
        <mxCell id="iDuFtPf6Ct4Iex1Se9p7-33" value="" style="ellipse;whiteSpace=wrap;html=1;aspect=fixed;" parent="1" vertex="1">
          <mxGeometry x="1350" y="260" width="30" height="30" as="geometry" />
        </mxCell>
        <mxCell id="iDuFtPf6Ct4Iex1Se9p7-34" value="Quantita" style="text;html=1;align=left;verticalAlign=middle;whiteSpace=wrap;rounded=0;" parent="1" vertex="1">
          <mxGeometry x="1380" y="260" width="60" height="30" as="geometry" />
        </mxCell>
        <mxCell id="iDuFtPf6Ct4Iex1Se9p7-35" value="" style="ellipse;whiteSpace=wrap;html=1;aspect=fixed;" parent="1" vertex="1">
          <mxGeometry x="1350" y="300" width="30" height="30" as="geometry" />
        </mxCell>
        <mxCell id="iDuFtPf6Ct4Iex1Se9p7-36" value="Costo" style="text;html=1;align=left;verticalAlign=middle;whiteSpace=wrap;rounded=0;" parent="1" vertex="1">
          <mxGeometry x="1380" y="300" width="60" height="30" as="geometry" />
        </mxCell>
        <mxCell id="iDuFtPf6Ct4Iex1Se9p7-37" value="" style="ellipse;whiteSpace=wrap;html=1;aspect=fixed;" parent="1" vertex="1">
          <mxGeometry x="1350" y="340" width="30" height="30" as="geometry" />
        </mxCell>
        <mxCell id="iDuFtPf6Ct4Iex1Se9p7-38" value="Fornitore" style="text;html=1;align=left;verticalAlign=middle;whiteSpace=wrap;rounded=0;" parent="1" vertex="1">
          <mxGeometry x="1380" y="340" width="60" height="30" as="geometry" />
        </mxCell>
        <mxCell id="iDuFtPf6Ct4Iex1Se9p7-57" value="" style="endArrow=none;html=1;rounded=0;" parent="1" edge="1">
          <mxGeometry width="50" height="50" relative="1" as="geometry">
            <mxPoint x="770" y="185" as="sourcePoint" />
            <mxPoint x="770" y="135" as="targetPoint" />
          </mxGeometry>
        </mxCell>
        <mxCell id="iDuFtPf6Ct4Iex1Se9p7-58" value="" style="endArrow=none;html=1;rounded=0;" parent="1" edge="1">
          <mxGeometry width="50" height="50" relative="1" as="geometry">
            <mxPoint x="960" y="185" as="sourcePoint" />
            <mxPoint x="960" y="135" as="targetPoint" />
          </mxGeometry>
        </mxCell>
        <mxCell id="iDuFtPf6Ct4Iex1Se9p7-59" value="" style="endArrow=none;html=1;rounded=0;" parent="1" edge="1">
          <mxGeometry width="50" height="50" relative="1" as="geometry">
            <mxPoint x="890" y="420" as="sourcePoint" />
            <mxPoint x="890" y="340" as="targetPoint" />
          </mxGeometry>
        </mxCell>
        <mxCell id="iDuFtPf6Ct4Iex1Se9p7-60" value="" style="ellipse;whiteSpace=wrap;html=1;aspect=fixed;fillColor=#000000;" parent="1" vertex="1">
          <mxGeometry x="875" y="420" width="30" height="30" as="geometry" />
        </mxCell>
        <mxCell id="iDuFtPf6Ct4Iex1Se9p7-61" value="" style="ellipse;whiteSpace=wrap;html=1;aspect=fixed;" parent="1" vertex="1">
          <mxGeometry x="530" y="220" width="30" height="30" as="geometry" />
        </mxCell>
        <mxCell id="iDuFtPf6Ct4Iex1Se9p7-62" value="Biglietto" style="text;html=1;align=left;verticalAlign=middle;whiteSpace=wrap;rounded=0;" parent="1" vertex="1">
          <mxGeometry x="560" y="220" width="60" height="30" as="geometry" />
        </mxCell>
        <mxCell id="iDuFtPf6Ct4Iex1Se9p7-64" value="" style="endArrow=none;html=1;rounded=0;entryX=0.5;entryY=1;entryDx=0;entryDy=0;edgeStyle=orthogonalEdgeStyle;curved=1;" parent="1" target="iDuFtPf6Ct4Iex1Se9p7-65" edge="1">
          <mxGeometry width="50" height="50" relative="1" as="geometry">
            <mxPoint x="500" y="250" as="sourcePoint" />
            <mxPoint x="495" y="130" as="targetPoint" />
            <Array as="points">
              <mxPoint x="490" y="251" />
              <mxPoint x="490" y="120" />
            </Array>
          </mxGeometry>
        </mxCell>
        <mxCell id="iDuFtPf6Ct4Iex1Se9p7-65" value="" style="ellipse;whiteSpace=wrap;html=1;aspect=fixed;fillColor=#000000;" parent="1" vertex="1">
          <mxGeometry x="510" y="90" width="30" height="30" as="geometry" />
        </mxCell>
      </root>
    </mxGraphModel>
  </diagram>
</mxfile>
